# xmcd
#
# Track frame offsets: 
#        150
#        12673
#        26828
#        42015
#        58675
#        73356
#        87307
#        103458
#        115466
#        131868
#        141826
#        152248
#        161584
#        172420
#        182514
#        199429
#
# Disc length: 2764 seconds
#
# Revision: 0
# Processed by: cddbd v1.5.2PL0 Copyright (c) Steve Scherf et al.
# Submitted via: ExactAudioCopy v0.99pb5
#
DISCID=fe0aca10
DTITLE=Геннадий Перевалов - Избранное, т.3
DYEAR=2000
DGENRE=Chanson
TTITLE0=Грешник
TTITLE1=Атака
TTITLE2=Пой, гитара
TTITLE3=Отдыхает оркестр
TTITLE4=Вороны
TTITLE5=Погоды нет
TTITLE6=Мотоциклистик
TTITLE7=Сибирское кино
TTITLE8=Синегорье
TTITLE9=Взрыв
TTITLE10=Вальсок
TTITLE11=Мент
TTITLE12=Кая и Чипчипдарик
TTITLE13=Пол и Джон
TTITLE14=Памяти Высоцкого
TTITLE15=Мы уходим
EXTD=
EXTT0=
EXTT1=
EXTT2=
EXTT3=
EXTT4=
EXTT5=
EXTT6=
EXTT7=
EXTT8=
EXTT9=
EXTT10=
EXTT11=
EXTT12=
EXTT13=
EXTT14=
EXTT15=
PLAYORDER=
